<svg width="164" height="28" viewBox="0 0 164 28" fill="none" xmlns="http://www.w3.org/2000/svg">
<path d="M6.33 7.62V13.91H17.346V18.33H6.33V27H0.822V3.2H18.808V7.62H6.33ZM40.126 8.708V27H35.094V24.824C34.3913 25.6173 33.5527 26.2293 32.578 26.66C31.6033 27.068 30.5493 27.272 29.416 27.272C27.0133 27.272 25.1093 26.5807 23.704 25.198C22.2987 23.8153 21.596 21.764 21.596 19.044V8.708H26.9V18.262C26.9 21.2087 28.1353 22.682 30.606 22.682C31.8753 22.682 32.8953 22.274 33.666 21.458C34.4367 20.6193 34.822 19.384 34.822 17.752V8.708H40.126ZM50.1058 11.122C50.7405 10.238 51.5905 9.56933 52.6558 9.116C53.7438 8.66267 54.9905 8.436 56.3958 8.436V13.332C55.8065 13.2867 55.4098 13.264 55.2058 13.264C53.6871 13.264 52.4971 13.6947 51.6358 14.556C50.7745 15.3947 50.3438 16.664 50.3438 18.364V27H45.0398V8.708H50.1058V11.122ZM70.6676 8.436C72.9342 8.436 74.7589 9.116 76.1416 10.476C77.5469 11.836 78.2496 13.8533 78.2496 16.528V27H72.9456V17.344C72.9456 15.8933 72.6282 14.8167 71.9936 14.114C71.3589 13.3887 70.4409 13.026 69.2396 13.026C67.9022 13.026 66.8369 13.4453 66.0436 14.284C65.2502 15.1 64.8536 16.324 64.8536 17.956V27H59.5496V8.708H64.6156V10.85C65.3182 10.0793 66.1909 9.49 67.2336 9.082C68.2762 8.65133 69.4209 8.436 70.6676 8.436ZM83.0574 8.708H88.3614V27H83.0574V8.708ZM85.7094 6.158C84.7347 6.158 83.9414 5.87467 83.3294 5.308C82.7174 4.74133 82.4114 4.03867 82.4114 3.2C82.4114 2.36133 82.7174 1.65867 83.3294 1.092C83.9414 0.525332 84.7347 0.241998 85.7094 0.241998C86.684 0.241998 87.4774 0.513999 88.0894 1.058C88.7014 1.602 89.0074 2.282 89.0074 3.098C89.0074 3.982 88.7014 4.71867 88.0894 5.308C87.4774 5.87467 86.684 6.158 85.7094 6.158ZM105.082 26.116C104.561 26.5013 103.915 26.796 103.144 27C102.396 27.1813 101.603 27.272 100.764 27.272C98.5879 27.272 96.8993 26.7167 95.6979 25.606C94.5193 24.4953 93.9299 22.8633 93.9299 20.71V13.196H91.1079V9.116H93.9299V4.662H99.2339V9.116H103.79V13.196H99.2339V20.642C99.2339 21.4127 99.4266 22.0133 99.8119 22.444C100.22 22.852 100.787 23.056 101.512 23.056C102.351 23.056 103.065 22.8293 103.654 22.376L105.082 26.116ZM126.487 8.708V27H121.455V24.824C120.753 25.6173 119.914 26.2293 118.939 26.66C117.965 27.068 116.911 27.272 115.777 27.272C113.375 27.272 111.471 26.5807 110.065 25.198C108.66 23.8153 107.957 21.764 107.957 19.044V8.708H113.261V18.262C113.261 21.2087 114.497 22.682 116.967 22.682C118.237 22.682 119.257 22.274 120.027 21.458C120.798 20.6193 121.183 19.384 121.183 17.752V8.708H126.487ZM136.467 11.122C137.102 10.238 137.952 9.56933 139.017 9.116C140.105 8.66267 141.352 8.436 142.757 8.436V13.332C142.168 13.2867 141.771 13.264 141.567 13.264C140.048 13.264 138.858 13.6947 137.997 14.556C137.136 15.3947 136.705 16.664 136.705 18.364V27H131.401V8.708H136.467V11.122ZM163.663 17.922C163.663 17.99 163.629 18.466 163.561 19.35H149.723C149.972 20.4833 150.562 21.3787 151.491 22.036C152.42 22.6933 153.576 23.022 154.959 23.022C155.911 23.022 156.75 22.886 157.475 22.614C158.223 22.3193 158.914 21.866 159.549 21.254L162.371 24.314C160.648 26.286 158.132 27.272 154.823 27.272C152.76 27.272 150.936 26.8753 149.349 26.082C147.762 25.266 146.538 24.144 145.677 22.716C144.816 21.288 144.385 19.6673 144.385 17.854C144.385 16.0633 144.804 14.454 145.643 13.026C146.504 11.5753 147.672 10.4533 149.145 9.66C150.641 8.844 152.307 8.436 154.143 8.436C155.934 8.436 157.554 8.82133 159.005 9.592C160.456 10.3627 161.589 11.4733 162.405 12.924C163.244 14.352 163.663 16.018 163.663 17.922ZM154.177 12.448C152.976 12.448 151.967 12.788 151.151 13.468C150.335 14.148 149.836 15.0773 149.655 16.256H158.665C158.484 15.1 157.985 14.182 157.169 13.502C156.353 12.7993 155.356 12.448 154.177 12.448Z" fill="#054C73"/>
</svg>
