<svg width="24" height="24" viewBox="0 0 24 24" fill="none" xmlns="http://www.w3.org/2000/svg">
<path d="M3 3H3.26835C3.74213 3 3.97922 3 4.17246 3.08548C4.34283 3.16084 4.48871 3.2823 4.59375 3.43616C4.71289 3.61066 4.75578 3.84366 4.8418 4.30957L7.00004 16L17.4195 16C17.8739 16 18.1016 16 18.2896 15.9198C18.4554 15.8491 18.5989 15.7348 18.7051 15.5891C18.8255 15.424 18.8763 15.2025 18.9785 14.7597L20.5477 7.95972C20.7022 7.29025 20.7796 6.95561 20.6946 6.69263C20.6201 6.46207 20.4639 6.26634 20.256 6.14192C20.0189 6 19.6758 6 18.9887 6H5.5M18 21C17.4477 21 17 20.5523 17 20C17 19.4477 17.4477 19 18 19C18.5523 19 19 19.4477 19 20C19 20.5523 18.5523 21 18 21ZM8 21C7.44772 21 7 20.5523 7 20C7 19.4477 7.44772 19 8 19C8.55228 19 9 19.4477 9 20C9 20.5523 8.55228 21 8 21Z" stroke="#002A48" stroke-width="2" stroke-linecap="round" stroke-linejoin="round"/>
</svg>
